<?xml version="1.0" encoding="UTF-8" standalone="no"?>
<svg
   width="64"
   height="64"
   viewBox="0 0 60 60"
   version="1.1"
   id="svg17"
   sodipodi:docname="nixos-icon-white.svg"
   inkscape:version="1.2.2 (b0a8486541, 2022-12-01)"
   xmlns:inkscape="http://www.inkscape.org/namespaces/inkscape"
   xmlns:sodipodi="http://sodipodi.sourceforge.net/DTD/sodipodi-0.dtd"
   xmlns:xlink="http://www.w3.org/1999/xlink"
   xmlns="http://www.w3.org/2000/svg"
   xmlns:svg="http://www.w3.org/2000/svg">
  <sodipodi:namedview
     id="namedview19"
     pagecolor="#ffffff"
     bordercolor="#ffffff"
     borderopacity="0.25"
     inkscape:showpageshadow="2"
     inkscape:pageopacity="0.0"
     inkscape:pagecheckerboard="0"
     inkscape:deskcolor="#ffffff"
     showgrid="false"
     inkscape:zoom="7.5625"
     inkscape:cx="32"
     inkscape:cy="32"
     inkscape:window-width="1366"
     inkscape:window-height="710"
     inkscape:window-x="0"
     inkscape:window-y="0"
     inkscape:window-maximized="1"
     inkscape:current-layer="svg17" />
  <g
     fill-rule="evenodd"
     id="g12"
     style="fill:#ffffff">
    <use
       xlink:href="#B"
       fill="#ffffff"
       id="use2"
       style="fill:#ffffff" />
    <path
       d="M23.58 20.214L8.964 45.528 5.55 39.743l3.94-6.78-7.823-.02L0 30.052l1.703-2.956 11.135.035 4.002-6.9zM24.7 40.45h29.23l-3.302 5.85-7.84-.022 3.894 6.785-1.67 2.9-3.412.004-5.537-9.66-7.976-.016zm17.014-11.092L27.1 4.043l6.716-.063 3.902 6.8 3.93-6.765 3.337.002 1.7 2.953-5.598 9.626 3.974 6.916z"
       fill="#ffffff"
       id="path4"
       style="fill:#ffffff" />
    <g
       fill="#ffffff"
       id="g10"
       style="fill:#ffffff">
      <use
         xlink:href="#B"
         id="use6"
         style="fill:#ffffff" />
      <path
         d="M35.28 19.486l-29.23-.002 3.303-5.848 7.84.022L13.3 6.873l1.67-2.9 3.412-.004 5.537 9.66 7.976.016zm1.14 20.294l14.616-25.313 3.413 5.785-3.94 6.78 7.823.02 1.668 2.9-1.703 2.956-11.135-.035-4.002 6.9z"
         id="path8"
         style="fill:#ffffff" />
    </g>
  </g>
  <defs
     id="defs15">
    <path
       id="B"
       d="M18.305 30.642L32.92 55.956l-6.716.063-3.902-6.8-3.93 6.765-3.337-.002-1.71-2.953 5.598-9.626-3.974-6.916z" />
  </defs>
</svg>
