<?xml version="1.0" encoding="UTF-8" standalone="no"?>
<svg
   width="64"
   height="64"
   viewBox="0 0 60 60"
   version="1.1"
   id="svg17"
   sodipodi:docname="nixos-icon-nord.svg"
   xml:space="preserve"
   inkscape:version="1.2.2 (b0a8486541, 2022-12-01)"
   xmlns:inkscape="http://www.inkscape.org/namespaces/inkscape"
   xmlns:sodipodi="http://sodipodi.sourceforge.net/DTD/sodipodi-0.dtd"
   xmlns:xlink="http://www.w3.org/1999/xlink"
   xmlns="http://www.w3.org/2000/svg"
   xmlns:svg="http://www.w3.org/2000/svg"><sodipodi:namedview
     id="namedview19"
     pagecolor="#ffffff"
     bordercolor="#000000"
     borderopacity="0.25"
     inkscape:showpageshadow="2"
     inkscape:pageopacity="0.0"
     inkscape:pagecheckerboard="0"
     inkscape:deskcolor="#d1d1d1"
     showgrid="false"
     inkscape:zoom="5.347495"
     inkscape:cx="27.863513"
     inkscape:cy="38.709713"
     inkscape:window-width="1366"
     inkscape:window-height="710"
     inkscape:window-x="0"
     inkscape:window-y="0"
     inkscape:window-maximized="1"
     inkscape:current-layer="svg17" /><use
     xlink:href="#B"
     fill="#5277c3"
     id="use2"
     style="fill-rule:evenodd" /><path
     d="M 23.58,20.214 8.964,45.528 5.55,39.743 9.49,32.963 1.667,32.943 0,30.052 l 1.703,-2.956 11.135,0.035 4.002,-6.9 z M 24.7,40.45 h 29.23 l -3.302,5.85 -7.84,-0.022 3.894,6.785 -1.67,2.9 -3.412,0.004 -5.537,-9.66 -7.976,-0.016 z M 41.714,29.358 27.1,4.043 33.816,3.98 l 3.902,6.8 3.93,-6.765 3.337,0.002 1.7,2.953 -5.598,9.626 3.974,6.916 z"
     fill="#7ebae4"
     id="path4"
     style="fill-rule:evenodd;fill:#87c0cf;fill-opacity:1" /><use
     xlink:href="#B"
     id="use6"
     style="fill:#5f81ac;fill-rule:evenodd;fill-opacity:1" /><path
     d="m 35.28,19.486 -29.23,-0.002 3.303,-5.848 7.84,0.022 -3.893,-6.785 1.67,-2.9 3.412,-0.004 5.537,9.66 7.976,0.016 z m 1.14,20.294 14.616,-25.313 3.413,5.785 -3.94,6.78 7.823,0.02 1.668,2.9 -1.703,2.956 -11.135,-0.035 -4.002,6.9 z"
     id="path8"
     style="fill:#5f7fac;fill-rule:evenodd;fill-opacity:1" /><defs
     id="defs15"><path
       id="B"
       d="M18.305 30.642L32.92 55.956l-6.716.063-3.902-6.8-3.93 6.765-3.337-.002-1.71-2.953 5.598-9.626-3.974-6.916z" /></defs></svg>
