<?xml version="1.0" encoding="UTF-8" standalone="no"?>
<svg
   width="17"
   height="17"
   version="1.1"
   id="svg143"
   sodipodi:docname="network-disconnected.svg"
   inkscape:version="1.2.2 (b0a8486541, 2022-12-01)"
   xmlns:inkscape="http://www.inkscape.org/namespaces/inkscape"
   xmlns:sodipodi="http://sodipodi.sourceforge.net/DTD/sodipodi-0.dtd"
   xmlns="http://www.w3.org/2000/svg"
   xmlns:svg="http://www.w3.org/2000/svg">
  <sodipodi:namedview
     id="namedview145"
     pagecolor="#ffffff"
     bordercolor="#000000"
     borderopacity="0.25"
     inkscape:showpageshadow="2"
     inkscape:pageopacity="0.0"
     inkscape:pagecheckerboard="0"
     inkscape:deskcolor="#d1d1d1"
     showgrid="false"
     inkscape:zoom="23"
     inkscape:cx="3.7391304"
     inkscape:cy="6.7826087"
     inkscape:window-width="1307"
     inkscape:window-height="756"
     inkscape:window-x="0"
     inkscape:window-y="0"
     inkscape:window-maximized="1"
     inkscape:current-layer="svg143" />
  <defs
     id="defs137">
    <style
       id="current-color-scheme"
       type="text/css">
   .ColorScheme-Text { color:#dfdfdf; } .ColorScheme-Highlight { color:#4285f4; } .ColorScheme-NeutralText { color:#ff9800; } .ColorScheme-PositiveText { color:#4caf50; } .ColorScheme-NegativeText { color:#f44336; }
  </style>
  </defs>
  <path
     style="fill:currentColor"
     class="ColorScheme-Text"
     d="m 11.5,12 v 1 c 0,0.28 0.1,0.54 0.28,0.72 l 0.78,0.78 -0.78,0.78 C 11.6,15.47 11.5,15.73 11.5,16 v 1 h 1 c 0.28,0 0.54,-0.1 0.72,-0.28 L 14,15.94 14.78,16.72 C 14.96,16.9 15.23,17 15.5,17 h 1 v -1 c 0,-0.27 -0.1,-0.53 -0.28,-0.72 L 15.44,14.5 16.22,13.72 C 16.4,13.54 16.5,13.28 16.5,13 v -1 h -1 c -0.27,0 -0.54,0.1 -0.72,0.28 L 14,13.07 13.22,12.28 C 13.04,12.1 12.78,12 12.5,12 Z"
     id="path139" />
  <path
     style="opacity:0.35;fill:currentColor"
     class="ColorScheme-Text"
     d="m 10.5,1 v 2 h -3 v 5 h 3 v 2 L 16,5.5 Z M 6.5,7 1,11.5 6.5,16 v -2 h 3 V 9 h -3 z"
     id="path141" />
</svg>
