<?xml version="1.0" encoding="UTF-8" standalone="no"?>
<svg
   width="17"
   height="17"
   version="1.1"
   id="svg7"
   sodipodi:docname="system-shutdown.svg"
   inkscape:version="1.2.2 (b0a8486541, 2022-12-01)"
   xmlns:inkscape="http://www.inkscape.org/namespaces/inkscape"
   xmlns:sodipodi="http://sodipodi.sourceforge.net/DTD/sodipodi-0.dtd"
   xmlns="http://www.w3.org/2000/svg"
   xmlns:svg="http://www.w3.org/2000/svg">
  <sodipodi:namedview
     id="namedview9"
     pagecolor="#ffffff"
     bordercolor="#000000"
     borderopacity="0.25"
     inkscape:showpageshadow="2"
     inkscape:pageopacity="0.0"
     inkscape:pagecheckerboard="0"
     inkscape:deskcolor="#d1d1d1"
     showgrid="false"
     inkscape:zoom="16.263456"
     inkscape:cx="10.02247"
     inkscape:cy="9.5920572"
     inkscape:window-width="1307"
     inkscape:window-height="756"
     inkscape:window-x="0"
     inkscape:window-y="0"
     inkscape:window-maximized="1"
     inkscape:current-layer="svg7" />
  <defs
     id="defs3">
    <style
       id="current-color-scheme"
       type="text/css">
   .ColorScheme-Text { color:#dfdfdf; } .ColorScheme-Highlight { color:#4285f4; } .ColorScheme-NeutralText { color:#ff9800; } .ColorScheme-PositiveText { color:#4caf50; } .ColorScheme-NegativeText { color:#f44336; }
  </style>
  </defs>
  <path
     style="fill:currentColor;stroke-width:1.23082"
     class="ColorScheme-Text"
     d="M 8.4999995,0.5 C 7.8181143,0.5 7.2691603,1.0489416 7.2691603,1.7308108 V 7.889672 c 0,0.681869 0.548954,1.230811 1.2308392,1.230811 0.6818862,0 1.2308403,-0.548942 1.2308403,-1.230811 V 1.7308108 C 9.7308398,1.0489416 9.1818857,0.5 8.4999995,0.5 Z m 3.7381955,2.4471979 a 1.2309632,1.2309339 0 0 0 -0.237993,0.014424 1.2309632,1.2309339 0 0 0 -0.538493,2.2308446 c 2.189049,1.6374705 2.637444,4.6958505 1.000058,6.8848475 -1.63751,2.188997 -4.7344268,2.59898 -6.9234757,0.961571 C 3.3492423,11.401476 2.9392495,8.343034 4.5766975,6.154037 4.8432482,5.797705 5.147684,5.502987 5.4998274,5.2309293 A 1.2347835,1.2347542 0 1 0 3.9997413,3.2693242 C 3.4715262,3.6774119 2.9763469,4.1580189 2.5765824,4.6924492 0.14222707,7.946713 0.82232773,12.604778 4.0766687,15.038952 7.3310097,17.47325 11.989185,16.793165 14.423417,13.538902 16.857773,10.284638 16.177672,5.626573 12.923332,3.1923986 A 1.2309632,1.2309339 0 0 0 12.238195,2.9471979 Z"
     id="path5" />
</svg>
